<svg xmlns="http://www.w3.org/2000/svg" x="0px" y="0px" viewBox="6.409600257873535 6.98859977722168 34.95619201660156 34.022705078125" enable-background="new 0 0 48 48">
<g>
	<path fill="none" stroke="#536DFE" stroke-width="1" stroke-linecap="round" stroke-linejoin="round" stroke-miterlimit="10" d="   M13.5,18.5l-1.3404-7.9376C11.5,8,10.182,7.4886,8.3015,7.4886H6.9096"/>
</g>
<g>
	
		<path fill="#FFFFFF" stroke="#000000" stroke-width="1" stroke-linecap="round" stroke-linejoin="round" stroke-miterlimit="10" d="   M30.2407,8.5795h-9.2378c-1.8714,0-3.3884,1.517-3.3884,3.3884v1.8616h16.0146V11.968   C33.6291,10.0966,32.112,8.5795,30.2407,8.5795z"/>
</g>
<g>
	
		<path fill="#FFFFFF" stroke="#536DFE" stroke-width="1" stroke-linecap="round" stroke-linejoin="round" stroke-miterlimit="10" d="   M33.9201,31.9091H21.8202c-3.9812,0-7.3228-2.9999-7.7506-6.9581l-1.202-11.1215h21.6301c3.7874,0,6.7375,3.2861,6.3305,7.0515   l-0.5776,5.3448C39.9012,29.4589,37.1719,31.9091,33.9201,31.9091z"/>
	
		<circle fill="#FFFFFF" stroke="#536DFE" stroke-width="1" stroke-linecap="round" stroke-linejoin="round" stroke-miterlimit="10" cx="20.229" cy="38.3295" r="2.1818"/>
	
		<circle fill="#FFFFFF" stroke="#536DFE" stroke-width="1" stroke-linecap="round" stroke-linejoin="round" stroke-miterlimit="10" cx="34.229" cy="38.3295" r="2.1818"/>
</g>
<g>
	
		<line fill="none" stroke="#000000" stroke-width="1" stroke-linecap="round" stroke-linejoin="round" stroke-miterlimit="10" x1="27.229" y1="20.3977" x2="27.229" y2="25.4569"/>
	
		<line fill="none" stroke="#000000" stroke-width="1" stroke-linecap="round" stroke-linejoin="round" stroke-miterlimit="10" x1="33.6291" y1="20.3977" x2="33.6291" y2="25.4569"/>
	
		<line fill="none" stroke="#000000" stroke-width="1" stroke-linecap="round" stroke-linejoin="round" stroke-miterlimit="10" x1="20.8289" y1="20.3977" x2="20.8289" y2="25.4569"/>
</g>
</svg>